<svg width="30" height="30" fill="none" xmlns="http://www.w3.org/2000/svg"><path d="M4.395 30h9.785V19.336h-3.516V15.82h3.516v-4.394a4.4 4.4 0 014.394-4.395h4.395v3.516h-3.516a1.76 1.76 0 00-1.758 1.758v3.515h5.115l-.586 3.516h-4.529V30h7.91A4.4 4.4 0 0030 25.605V4.395A4.4 4.4 0 0025.605 0H4.395A4.4 4.4 0 000 4.395v21.21A4.4 4.4 0 004.395 30zM1.758 4.395a2.64 2.64 0 012.637-2.637h21.21a2.64 2.64 0 012.637 2.637v21.21a2.64 2.64 0 01-2.637 2.637h-6.152v-7.148h4.26l1.172-7.032h-5.432v-1.757h5.274V5.273h-6.153a6.16 6.16 0 00-6.152 6.153v2.636H8.906v7.032h3.516v7.148H4.395a2.64 2.64 0 01-2.637-2.637V4.395z" fill="#F87E0F"/></svg>