<svg width="29" height="30" fill="none" xmlns="http://www.w3.org/2000/svg"><g clip-path="url(#clip0)"><path d="M14.213.944C6.43.944.051 7.378.051 15.162c0 7.738 6.32 14.106 14.162 14.106 7.832 0 14.162-6.358 14.162-14.106 0-7.784-6.378-14.218-14.162-14.218zm2.49 26.416c-.797.166-1.643.249-2.49.249-.846 0-1.693-.083-2.49-.25v-3.883c0-.929.25-1.26.582-1.71.169-.192.27-.366 1.029-1.51l-1.278-.198c-3.286-.482-4.58-2.191-5.095-3.519-.664-1.776-.316-4 .88-5.41.182-.216.331-.581.199-.963-.25-.763-.216-1.975-.05-2.44.88.126 1.784.757 2.539 1.212.348.203.53.15.697.166.606-.126 1.552-.431 3.004-.431.896 0 1.842.132 2.771.398.167-.004.434.137.897-.133.788-.48 1.663-1.09 2.539-1.211.166.464.199 1.676-.05 2.44-.133.38.017.746.2.962 1.194 1.41 1.543 3.635.879 5.41-.515 1.328-1.81 3.037-5.095 3.519l-1.278.199c.783 1.182.866 1.324 1.029 1.51.332.448.58.78.58 1.71v3.883zm1.66-.481v-3.402c0-.947-.2-1.577-.466-2.042 2.523-.68 4.316-2.174 5.112-4.315.847-2.257.465-4.946-.946-6.804.25-1.112.25-2.888-.348-3.718a1.296 1.296 0 00-1.096-.564h-.016c-1.287.07-2.3.717-3.386 1.377a11.464 11.464 0 00-5.991 0c-1.143-.69-2.146-1.31-3.469-1.377-.415 0-.78.2-1.045.564-.598.83-.598 2.606-.349 3.718-1.41 1.858-1.792 4.563-.946 6.804.797 2.14 2.59 3.635 5.112 4.315-.206.36-.369.825-.433 1.454-.51.176-.952.233-1.363.112-.433-.128-.77-.417-1.064-.91-.66-1.108-1.782-2.012-3.06-1.894l.146 1.653c.592-.055 1.18.572 1.487 1.088.504.85 1.184 1.408 2.021 1.655.622.183 1.19.178 1.801.048v2.238c-4.83-1.693-8.353-6.307-8.353-11.717 0-6.871 5.631-12.558 12.502-12.558s12.503 5.687 12.503 12.558c0 5.41-3.524 10.024-8.354 11.717z" fill="#F87E0F"/></g><defs><clipPath id="clip0"><path fill="#fff" transform="translate(.051 .944)" d="M0 0h28.324v28.324H0z"/></clipPath></defs></svg>