<svg width="29" height="30" fill="none" xmlns="http://www.w3.org/2000/svg"><g clip-path="url(#clip0)" fill="#F87E0F"><path d="M20.657.944H7.667C3.44.944 0 4.384 0 8.611v12.99c0 4.228 3.44 7.667 7.667 7.667h12.99c4.228 0 7.667-3.439 7.667-7.666V8.612c0-4.228-3.44-7.668-7.667-7.668zm6.007 20.658a6.013 6.013 0 01-6.007 6.006H7.667a6.013 6.013 0 01-6.007-6.006V8.612a6.013 6.013 0 016.007-6.007h12.99a6.013 6.013 0 016.007 6.006v12.99z"/><path d="M14.162 7.362c-4.27 0-7.745 3.474-7.745 7.745 0 4.27 3.475 7.744 7.745 7.744s7.745-3.474 7.745-7.744c0-4.271-3.474-7.745-7.745-7.745zm0 13.829a6.091 6.091 0 01-6.084-6.084 6.091 6.091 0 016.084-6.085 6.091 6.091 0 016.084 6.085 6.09 6.09 0 01-6.084 6.084zM22.092 4.611A2.291 2.291 0 0019.804 6.9a2.291 2.291 0 002.288 2.288A2.291 2.291 0 0024.381 6.9a2.291 2.291 0 00-2.289-2.289zm0 2.917a.629.629 0 11.002-1.258.629.629 0 01-.002 1.258z"/></g><defs><clipPath id="clip0"><path fill="#fff" transform="translate(0 .944)" d="M0 0h28.324v28.324H0z"/></clipPath></defs></svg>