<svg width="29" height="30" fill="none" xmlns="http://www.w3.org/2000/svg"><g clip-path="url(#clip0)" fill="#F87E0F"><path d="M21.77 28.162H2.297a.554.554 0 01-.553-.553V2.604c0-.305.248-.553.553-.553h1.106a.553.553 0 100-1.107H2.297c-.915 0-1.66.745-1.66 1.66v25.005c0 .915.745 1.66 1.66 1.66H21.77a.553.553 0 000-1.107zM27.302.944H7.829a.553.553 0 100 1.107h19.473c.305 0 .553.248.553.553v25.005a.554.554 0 01-.553.553h-1.107a.553.553 0 100 1.107h1.107c.915 0 1.66-.745 1.66-1.66V2.604c0-.915-.745-1.66-1.66-1.66z"/><path d="M7.456 10.722a2.921 2.921 0 002.918-2.918c0-1.61-1.31-2.918-2.918-2.918a2.921 2.921 0 00-2.919 2.918 2.921 2.921 0 002.919 2.918zm0-4.73c.999 0 1.811.813 1.811 1.812 0 .999-.812 1.812-1.811 1.812a1.814 1.814 0 01-1.812-1.812c0-1 .813-1.812 1.812-1.812zM19.681 10.999a5.386 5.386 0 00-3.347 1.177v-.347a.553.553 0 00-.553-.553h-3.858a.553.553 0 00-.553.553v12.945c0 .305.247.553.553.553h4.066a.553.553 0 00.553-.553v-7.472c0-.923.75-1.673 1.673-1.673s1.674.75 1.674 1.673v7.472c0 .305.248.553.553.553h4.066a.553.553 0 00.553-.553v-8.395a5.386 5.386 0 00-5.38-5.38zm4.274 13.222h-2.96v-6.919a2.783 2.783 0 00-2.78-2.78 2.783 2.783 0 00-2.78 2.78v6.919h-2.96V12.382h2.753v1.162a.553.553 0 001 .326 4.295 4.295 0 013.453-1.765 4.278 4.278 0 014.274 4.274v7.842zM5.423 11.275a.553.553 0 00-.554.554v12.945c0 .305.248.553.554.553h4.066a.553.553 0 00.553-.553V11.829a.553.553 0 00-.553-.554H5.423zM8.935 24.22h-2.96V12.382h2.96V24.22zM5.616 2.05a.553.553 0 000-1.106.553.553 0 100 1.107zM23.983 28.162a.553.553 0 10-.001 1.106.553.553 0 000-1.106z"/></g><defs><clipPath id="clip0"><path fill="#fff" transform="translate(.637 .944)" d="M0 0h28.324v28.324H0z"/></clipPath></defs></svg>