<svg width="86" height="80" viewBox="0 0 86 80" fill="none" xmlns="http://www.w3.org/2000/svg">
<path d="M30.7656 28.9683L41.4141 40.1619L30.8158 50.9778L37.7445 58.543L55.6426 40.2729L37.7947 21.514L30.7656 28.9683" fill="#F46D16"/>
<path d="M74.4032 42.4121L58.1006 60.3369C52.7782 66.2317 45.5967 69.4802 37.8828 69.4802C22.4873 69.4802 9.96369 56.2565 9.96369 40C9.96369 30.8198 13.9094 22.3239 20.7897 16.6879C25.7213 12.6527 31.63 10.5198 37.8828 10.5198C53.8341 10.5198 64.2854 26.1952 74.4194 36.8995C75.8445 38.3994 75.8517 40.8527 74.4032 42.4121V42.4121ZM81.4628 29.4596C68.8065 16.0914 57.5897 -5.17804e-07 37.8828 -5.17804e-07C29.3999 -5.17804e-07 21.3777 2.89494 14.6874 8.37479C5.35114 16.0182 0 27.5448 0 40C0 62.0566 16.9963 80 37.8828 80C48.3485 80 58.0899 75.5949 65.2964 67.6083L81.5488 49.7411C86.7763 44.1215 86.7368 35.0237 81.4628 29.4596" fill="#F46D16"/>
</svg>
